<svg width="25" height="34" viewBox="0 0 25 34" fill="none" xmlns="http://www.w3.org/2000/svg">
<path fill-rule="evenodd" clip-rule="evenodd" d="M12.8788 27.9394C14.6379 27.9394 16.2939 28.2955 17.8 28.9977C19.3005 29.6958 20.6387 30.6995 21.7288 31.9447C22.0318 32.2909 22.3333 32.6765 22.6227 33.0924L22.7273 33.2424H3.0303L3.13409 33.0924C3.41066 32.6939 3.7091 32.311 4.02803 31.9455C5.11823 30.6999 6.45669 29.6958 7.95758 28.9977C9.46364 28.2955 11.1197 27.9394 12.8788 27.9394ZM12.5 -0.0909119C19.3924 -0.0909119 25 5.51667 25 12.4091C25 19.3015 19.3924 24.9091 12.5 24.9091C5.60758 24.9091 0 19.3015 0 12.4091C0 5.51667 5.60758 -0.0909119 12.5 -0.0909119ZM12.5 4.45454C8.11364 4.45454 4.54545 8.02273 4.54545 12.4091C4.54545 16.7955 8.11364 20.3636 12.5 20.3636C16.8864 20.3636 20.4545 16.7955 20.4545 12.4091C20.4545 8.02273 16.8864 4.45454 12.5 4.45454Z" fill="#FED097"/>
</svg>
